<svg width="20" height="10" viewBox="0 0 20 10" fill="none"
    xmlns="http://www.w3.org/2000/svg">
    <path d="M19.2188 4.0625H2.67353L5.41431 1.335C5.72013 1.03062 5.7213 0.535974 5.41693 0.230153C5.11255 -0.0757059 4.61786 -0.0768385 4.31204 0.227497L0.229858 4.29C0.229585 4.29023 0.22939 4.2905 0.229155 4.29074C-0.0758836 4.59511 -0.0768601 5.09136 0.229077 5.39675C0.229351 5.39699 0.229546 5.39726 0.22978 5.3975L4.31196 9.46C4.61775 9.76429 5.11243 9.76324 5.41685 9.45734C5.72122 9.15152 5.72005 8.65687 5.41423 8.3525L2.67353 5.625H19.2188C19.6502 5.625 20 5.27523 20 4.84375C20 4.41226 19.6502 4.0625 19.2188 4.0625Z" fill="black"/>
</svg>
